HIERARCHY
ROOT Hips
{
    OFFSET 0.000000 0.000000 0.000000
    CHANNELS 6 Xposition Yposition Zposition Zrotation Xrotation Yrotation
    JOINT Spine
    {
        OFFSET -0.000000 14.517291 0.000000
        CHANNELS 3 Zrotation Xrotation Yrotation
        JOINT Spine1
        {
            OFFSET -0.000000 37.558300 0.000000
            CHANNELS 3 Zrotation Xrotation Yrotation
            JOINT Neck
            {
                OFFSET -0.000000 37.404057 3.400369
                CHANNELS 3 Zrotation Xrotation Yrotation
                JOINT Head
                {
                    OFFSET -0.000000 24.785618 -3.540803
                    CHANNELS 3 Zrotation Xrotation Yrotation
                    End Site
                    {
                        OFFSET -0.000000 35.408028 0.000000
                    }
                }
            }
            JOINT LeftShoulder
            {
                OFFSET 6.992933 33.973492 -0.192664
                CHANNELS 3 Zrotation Xrotation Yrotation
                JOINT LeftArm
                {
                    OFFSET 21.527611 0.000000 0.000000
                    CHANNELS 3 Zrotation Xrotation Yrotation
                    JOINT LeftForeArm
                    {
                        OFFSET 56.353916 0.000000 0.000000
                        CHANNELS 3 Zrotation Xrotation Yrotation
                        JOINT LeftHand
                        {
                            OFFSET 47.774071 0.000000 0.000000
                            CHANNELS 3 Zrotation Xrotation Yrotation
                            End Site
                            {
                                OFFSET 26.556021 0.000000 0.000000
                            }
                        }
                    }
                }
            }
            JOINT RightShoulder
            {
                OFFSET -7.065357 33.973492 -0.192664
                CHANNELS 3 Zrotation Xrotation Yrotation
                JOINT RightArm
                {
                    OFFSET -21.527611 0.000000 0.000000
                    CHANNELS 3 Zrotation Xrotation Yrotation
                    JOINT RightForeArm
                    {
                        OFFSET -56.353916 0.000000 0.000000
                        CHANNELS 3 Zrotation Xrotation Yrotation
                        JOINT RightHand
                        {
                            OFFSET -47.774071 0.000000 0.000000
                            CHANNELS 3 Zrotation Xrotation Yrotation
                            End Site
                            {
                                OFFSET -26.556021 0.000000 0.000000
                            }
                        }
                    }
                }
            }
        }
    }
    JOINT LeftUpLeg
    {
        OFFSET 17.704014 0.000000 0.000000
        CHANNELS 3 Zrotation Xrotation Yrotation
        JOINT LeftLeg
        {
            OFFSET -0.000000 -81.181816 0.000000
            CHANNELS 3 Zrotation Xrotation Yrotation
            JOINT LeftFoot
            {
                OFFSET -0.000000 -62.821102 0.000000
                CHANNELS 3 Zrotation Xrotation Yrotation
                JOINT LeftToeBase
                {
                    OFFSET -0.000000 -11.507608 26.556021
                    CHANNELS 3 Zrotation Xrotation Yrotation
                    End Site
                    {
                        OFFSET -0.000000 0.000000 7.081605
                    }
                }
            }
        }
    }
    JOINT RightUpLeg
    {
        OFFSET -17.704014 0.000000 0.000000
        CHANNELS 3 Zrotation Xrotation Yrotation
        JOINT RightLeg
        {
            OFFSET -0.000000 -81.181816 0.000000
            CHANNELS 3 Zrotation Xrotation Yrotation
            JOINT RightFoot
            {
                OFFSET -0.000000 -62.821102 0.000000
                CHANNELS 3 Zrotation Xrotation Yrotation
                JOINT RightToeBase
                {
                    OFFSET -0.000000 -11.507608 26.556021
                    CHANNELS 3 Zrotation Xrotation Yrotation
                    End Site
                    {
                        OFFSET -0.000000 0.000000 7.081605
                    }
                }
            }
        }
    }
}
MOTION
Frames:    5
Frame Time:    0.008333
0.245888    154.981094    -3.418475    1.320450    -2.535717    -33.390545    0.828274    0.310492    -0.718467    -2.319936    3.021643    -0.179792    17.635345    5.030454    16.259726    -10.905650    1.126200    13.670789    0.476026    10.313409    -13.262803    -35.802814    8.021309    -36.641262    37.575741    -43.880939    -41.831554    -19.212362    -27.204256    -32.510162    -5.431776    5.502213    -3.717965    36.675240    9.966846    75.225677    6.098576    -6.504484    93.393959    7.664463    -11.668356    18.546406    22.849602    -20.957901    0.944429    -15.984135    24.550983    -3.514209    -16.871378    0.737718    34.133736    0.000000    0.000000    0.000000    -7.827943    -1.703512    2.445849    4.441080    37.197262    2.390673    -3.357766    -30.124514    -20.803963    0.000000    0.000000    0.000000    
0.606463    154.986923    -2.916780    1.365785    -2.433946    -33.323418    0.900790    0.321569    -0.663059    -2.407084    2.985327    -0.159590    17.692312    5.014711    16.242105    -11.001184    1.049338    13.623979    0.547462    10.338146    -13.335018    -35.714909    7.950933    -36.801262    37.537464    -43.897919    -41.776260    -19.185822    -27.262810    -32.533348    -5.389779    5.482607    -3.714471    36.614109    9.981606    75.290001    5.996712    -6.706942    93.322174    7.742614    -11.743290    18.514585    22.680164    -21.184895    1.250725    -16.068584    25.033028    -3.585534    -16.348549    0.432700    33.936169    0.000000    0.000000    0.000000    -7.999861    -1.622184    2.395028    4.371810    36.987106    2.460341    -3.251355    -30.089762    -20.831388    0.000000    0.000000    0.000000    
0.957252    154.997604    -2.423729    1.397856    -2.334710    -33.278416    1.040521    0.318662    -0.699589    -2.530793    2.943369    -0.169176    17.548267    5.042018    16.255474    -10.863209    0.985445    13.669720    0.461218    10.297809    -13.292972    -35.481613    8.063790    -36.830296    37.743137    -43.962051    -41.479904    -19.233490    -27.345444    -32.590427    -5.416954    5.487587    -3.518717    36.691185    9.943171    75.360512    6.044061    -6.764069    93.154366    7.810994    -11.813319    18.607218    22.522417    -21.387585    1.490026    -16.148079    25.488993    -3.720889    -15.880229    0.092889    33.849064    0.000000    0.000000    0.000000    -8.137800    -1.530170    2.271822    4.191957    36.761597    2.584697    -3.076548    -30.046295    -20.798456    0.000000    0.000000    0.000000    
1.306790    154.998306    -1.916221    1.410573    -2.264503    -33.275612    1.105984    0.338794    -0.604795    -2.559508    2.938335    -0.137116    17.595306    5.055986    16.229073    -11.030905    0.921023    13.611202    0.473065    10.274456    -13.371098    -35.409721    8.012327    -36.922565    37.668873    -43.966160    -41.477551    -19.179461    -27.388208    -32.626980    -5.418541    5.449399    -3.475235    36.666336    9.912341    75.407997    6.030860    -6.860808    93.046944    7.822883    -11.886840    18.527308    22.361347    -21.530106    1.662900    -16.235497    25.923296    -3.834248    -15.417624    -0.304258    33.798122    0.000000    0.000000    0.000000    -8.298125    -1.409287    2.300749    4.138261    36.530891    2.633058    -2.989596    -29.988983    -20.829266    0.000000    0.000000    0.000000    
1.645690    154.987930    -1.419374    1.423427    -2.165918    -33.321888    1.217730    0.351106    -0.490839    -2.648242    2.901993    -0.097468    17.547255    4.972030    16.217710    -10.924720    0.981626    13.610661    0.505283    10.236743    -13.377849    -35.319218    8.078061    -37.041233    37.803627    -43.974636    -41.326820    -19.160604    -27.404251    -32.634785    -5.393831    5.446248    -3.453817    36.610401    9.890977    75.517128    6.061635    -6.984363    92.936859    7.905454    -12.016287    18.513079    22.247221    -21.676678    1.782447    -16.358400    26.350647    -4.040529    -14.973742    -0.773583    33.913174    0.000000    0.000000    0.000000    -8.423034    -1.331824    2.319324    4.023435    36.315495    2.668794    -2.825396    -29.955536    -20.796919    0.000000    0.000000    0.000000    
